<svg width="50" height="50" viewBox="0 0 50 50" fill="none" xmlns="http://www.w3.org/2000/svg">
<path d="M12.7296 26.7225H22.4334V31.352H26.3207V26.7225H36.0245L24.3628 0L12.7296 26.7225ZM10.5938 5.54672L3.57397 21.6452H9.42617V24.4619H11.4695L11.7685 23.7397V21.6452H12.6869L15.1502 15.983L10.5938 5.54672ZM38.6729 5.54672L33.8602 16.5968L36.0672 21.6524H37.4911V24.4619H39.8334V21.6452H45.6785L38.6729 5.54672Z" fill="#46A2F8"/>
<path d="M2.00769 38.3864C2.33135 38.3801 2.65442 38.4165 2.9688 38.4948C3.2029 38.5461 3.42367 38.647 3.61668 38.7909C3.77838 38.9101 3.90412 39.0727 3.97978 39.2603C4.05835 39.4576 4.09709 39.6688 4.09369 39.8815C4.09511 40.0037 4.0783 40.1254 4.04385 40.2426C4.00658 40.359 3.9513 40.4687 3.88009 40.5676C3.79487 40.6714 3.69677 40.7637 3.58822 40.842C3.45651 40.9297 3.31561 41.0024 3.16815 41.0587C3.47037 41.1155 3.74846 41.2641 3.96555 41.4848C4.14201 41.6987 4.2334 41.9717 4.22184 42.2504C4.22523 42.4769 4.17903 42.7014 4.08657 42.9076C3.9971 43.1132 3.8633 43.2959 3.695 43.4421C3.50488 43.5993 3.28761 43.7193 3.05426 43.796C2.76997 43.8807 2.47484 43.922 2.17855 43.9187H0V38.3864H2.00769ZM1.29575 39.347V40.712H1.95073C2.07622 40.7242 2.20256 40.7242 2.32806 40.712C2.43119 40.6948 2.53022 40.6581 2.61996 40.6037C2.69867 40.5536 2.76069 40.4806 2.79794 40.3942C2.84495 40.2902 2.86691 40.1764 2.86202 40.062C2.86275 39.9517 2.84592 39.8419 2.81218 39.737C2.7793 39.6542 2.72816 39.5801 2.66267 39.5204C2.58508 39.4675 2.498 39.4307 2.40638 39.412C2.28447 39.3875 2.16044 39.3754 2.03616 39.3759L1.29575 39.347ZM2.18568 42.9582C2.32381 42.9632 2.46158 42.9411 2.59147 42.8932C2.68731 42.8606 2.77317 42.8034 2.84066 42.7271C2.90346 42.6634 2.94778 42.5834 2.9688 42.4959C2.97916 42.4096 2.97916 42.3223 2.9688 42.2359C2.97028 42.1426 2.95583 42.0498 2.92609 41.9615C2.89903 41.8813 2.85251 41.8092 2.79082 41.752C2.71648 41.695 2.63184 41.6532 2.54165 41.6293C2.41216 41.5915 2.27762 41.5744 2.14294 41.5787H1.26014V42.9582H2.18568Z" fill="#1D1F21"/>
<path d="M8.11609 42.8929V43.9185H4.8269V38.3862H6.09417V42.8929H8.11609Z" fill="#1D1F21"/>
<path d="M13.4629 43.9185H12.4875C12.3909 43.9256 12.2949 43.8975 12.217 43.8391C12.1522 43.7874 12.1009 43.7205 12.0675 43.6441L11.74 42.6763H9.66821L9.34785 43.6441C9.31725 43.7202 9.26524 43.7855 9.19832 43.8319C9.12325 43.8912 9.03001 43.9219 8.93491 43.9185H7.94531L10.0812 38.3862H11.3769L13.4629 43.9185ZM11.4552 41.7952L10.9497 40.2785C10.9141 40.1846 10.8714 40.069 10.8287 39.939C10.786 39.809 10.7433 39.6718 10.7005 39.5201C10.6649 39.6718 10.6222 39.8162 10.5795 39.9463C10.5449 40.0614 10.5045 40.1747 10.4585 40.2857L9.96011 41.7952H11.4552Z" fill="#1D1F21"/>
<path d="M17.2077 42.5174H17.2932C17.3264 42.5323 17.3575 42.5518 17.3857 42.5752L17.8841 43.1168C17.667 43.4022 17.3831 43.6281 17.0582 43.7741C16.6859 43.9297 16.2861 44.0059 15.8835 43.9979C15.5025 44.0042 15.1244 43.9304 14.7729 43.7813C14.4548 43.6463 14.1685 43.4444 13.9328 43.1891C13.7016 42.928 13.5227 42.6238 13.4059 42.2935C13.2835 41.931 13.2233 41.5499 13.2279 41.1668C13.2227 40.7771 13.2904 40.3899 13.4273 40.0257C13.5486 39.6911 13.7378 39.386 13.9826 39.1301C14.2297 38.8803 14.5223 38.6816 14.8441 38.5451C15.3809 38.3439 15.9609 38.2916 16.5243 38.3935C16.6996 38.4267 16.8714 38.4775 17.0369 38.5451C17.1896 38.6086 17.3352 38.6885 17.4712 38.7834C17.5982 38.8683 17.7152 38.9677 17.82 39.0796L17.3928 39.6574C17.365 39.694 17.3313 39.7258 17.2932 39.7513C17.2474 39.7836 17.1921 39.7989 17.1365 39.7946C17.0944 39.8047 17.0505 39.8047 17.0084 39.7946L16.8874 39.7224L16.7378 39.6285C16.6766 39.5915 16.6123 39.56 16.5456 39.5346C16.4626 39.5008 16.3768 39.4742 16.2893 39.4551C16.1732 39.4465 16.0566 39.4465 15.9405 39.4551C15.7419 39.4548 15.5455 39.4966 15.3638 39.5779C15.1899 39.6535 15.0362 39.7698 14.9153 39.9174C14.7833 40.0817 14.6841 40.2706 14.6234 40.4735C14.5539 40.7076 14.5203 40.9512 14.5237 41.1957C14.5188 41.4532 14.5573 41.7097 14.6376 41.954C14.7033 42.1577 14.8073 42.3466 14.9437 42.5102C15.0738 42.6538 15.2312 42.7693 15.4065 42.8496C15.5836 42.9287 15.7755 42.9681 15.9689 42.9652C16.0732 42.9729 16.1779 42.9729 16.2822 42.9652C16.3721 42.9578 16.4607 42.9384 16.5456 42.9074C16.6298 42.8861 16.7094 42.8494 16.7806 42.7991C16.8595 42.7514 16.9335 42.6958 17.0013 42.6329L17.1009 42.5679C17.1323 42.5431 17.1688 42.5258 17.2077 42.5174Z" fill="#1D1F21"/>
<path d="M19.5073 40.6254H19.7138C19.7902 40.6317 19.8669 40.6193 19.9376 40.5891C20.0082 40.5589 20.0707 40.5119 20.1196 40.4521L21.3441 38.6393C21.4041 38.5544 21.4852 38.4871 21.5791 38.4443C21.6779 38.4013 21.785 38.3815 21.8924 38.3865H22.9888L21.3726 40.6254C21.2769 40.7644 21.15 40.8782 21.0024 40.9576C21.0968 40.9907 21.1839 41.0422 21.2587 41.1093C21.3462 41.1771 21.4209 41.2603 21.4794 41.3549L23.124 43.9188H21.9991C21.9377 43.927 21.8755 43.927 21.814 43.9188C21.7664 43.9143 21.7203 43.8995 21.6788 43.8754C21.6428 43.8556 21.6093 43.8313 21.5791 43.8032C21.5513 43.7709 21.5251 43.7372 21.5008 43.7021L20.2762 41.7954C20.2341 41.7299 20.175 41.6774 20.1054 41.6438C20.0139 41.6114 19.9173 41.5967 19.8206 41.6004H19.5073V43.9549H18.2472V38.4226H19.5073V40.6254Z" fill="#1D1F21"/>
<path d="M24.6263 39.3758V40.7769H26.4916V41.7953H24.6263V43.962H23.3519V38.4297H26.8689V39.4191L24.6263 39.3758Z" fill="#1D1F21"/>
<path d="M32.714 41.1523C32.7188 41.5326 32.6511 41.9103 32.5147 42.2645C32.3857 42.6025 32.1894 42.9098 31.938 43.1673C31.683 43.4244 31.3806 43.6281 31.0481 43.7668C30.3006 44.0555 29.4746 44.0555 28.7271 43.7668C28.3915 43.6299 28.0865 43.4261 27.8301 43.1673C27.5787 42.9098 27.3824 42.6025 27.2534 42.2645C27.1147 41.9107 27.0446 41.533 27.0469 41.1523C27.0446 40.7692 27.1147 40.3892 27.2534 40.0328C27.3842 39.6979 27.5803 39.3933 27.8301 39.1373C28.0849 38.8784 28.3906 38.6766 28.7271 38.545C29.0953 38.393 29.4902 38.3193 29.8876 38.3284C30.2846 38.3236 30.6788 38.3972 31.0481 38.545C31.3806 38.6837 31.683 38.8874 31.938 39.1445C32.1893 39.3992 32.3857 39.7042 32.5147 40.0401C32.6511 40.3943 32.7188 40.772 32.714 41.1523ZM31.4183 41.1523C31.4226 40.9077 31.389 40.664 31.3186 40.4301C31.2559 40.2229 31.1517 40.0311 31.0125 39.8667C30.8822 39.7151 30.7189 39.5964 30.5355 39.5201C30.1161 39.3565 29.6519 39.3565 29.2326 39.5201C29.0471 39.5964 28.8815 39.715 28.7485 39.8667C28.6142 40.0334 28.5127 40.2246 28.4495 40.4301C28.3766 40.6636 28.3406 40.9073 28.3427 41.1523C28.3418 41.3971 28.3778 41.6407 28.4495 41.8745C28.5127 42.0778 28.6143 42.2667 28.7485 42.4306C28.8815 42.5824 29.0471 42.701 29.2326 42.7773C29.6537 42.9312 30.1144 42.9312 30.5355 42.7773C30.7189 42.701 30.8822 42.5823 31.0125 42.4306C31.1515 42.2688 31.2557 42.0794 31.3186 41.8745C31.3878 41.6403 31.4215 41.3968 31.4183 41.1523Z" fill="#1D1F21"/>
<path d="M37.7403 43.9186H36.594C36.5037 43.9261 36.4131 43.9077 36.3326 43.8656C36.252 43.8235 36.1847 43.7593 36.1384 43.6802L35.2271 42.0697C35.1911 42.0092 35.1425 41.9574 35.0847 41.918C35.016 41.8848 34.94 41.8699 34.864 41.8747H34.5436V43.9186H33.2764V38.3863H35.0491C35.39 38.3804 35.7302 38.4217 36.0601 38.5091C36.3196 38.5703 36.5627 38.6886 36.772 38.8558C36.9394 38.9953 37.0712 39.1737 37.1565 39.3758C37.2352 39.583 37.2738 39.8037 37.2704 40.0258C37.2728 40.1994 37.2488 40.3724 37.1992 40.5386C37.1555 40.6962 37.0857 40.8452 36.9927 40.9791C36.8977 41.1165 36.7824 41.2383 36.651 41.3402C36.5093 41.4521 36.3506 41.5399 36.1811 41.6002C36.2631 41.6466 36.3395 41.7023 36.4089 41.7663C36.488 41.8312 36.5554 41.9093 36.6083 41.9975L37.7403 43.9186ZM35.0491 40.9863C35.1988 40.9897 35.348 40.9678 35.4905 40.9213C35.6011 40.8821 35.7028 40.8207 35.7895 40.7408C35.8679 40.6634 35.9245 40.5661 35.9533 40.4591C35.9913 40.3501 36.0105 40.2353 36.0102 40.1197C36.0152 40.0128 35.9966 39.9062 35.956 39.8076C35.9154 39.7089 35.8537 39.6206 35.7753 39.5491C35.5685 39.3996 35.3167 39.328 35.0634 39.3469H34.5579V40.9863H35.0491Z" fill="#1D1F21"/>
<path d="M39.2851 39.3757V40.6685H41.0009V41.6146H39.2851V42.9363H41.5277V43.9185H38.0178V38.3862H41.5348V39.3757H39.2851Z" fill="#1D1F21"/>
<path d="M45.1374 39.5132C45.1049 39.5633 45.0666 39.6094 45.0235 39.6505C44.9743 39.681 44.9174 39.6961 44.8598 39.6938C44.7943 39.6903 44.7307 39.6704 44.6747 39.636L44.454 39.5132C44.3596 39.4654 44.2621 39.4244 44.1621 39.3905C44.0449 39.3514 43.9223 39.3319 43.799 39.3327C43.6081 39.3202 43.419 39.3764 43.265 39.4916C43.2082 39.543 43.1633 39.6066 43.1338 39.6779C43.1042 39.7491 43.0907 39.8261 43.0941 39.9032C43.0922 39.9551 43.1007 40.0068 43.119 40.0552C43.1374 40.1036 43.1652 40.1477 43.2009 40.1849C43.2772 40.266 43.3693 40.33 43.4715 40.3727C43.5986 40.4298 43.7294 40.4781 43.863 40.5171L44.3116 40.6688C44.4647 40.7221 44.6145 40.7848 44.7601 40.8566C44.8994 40.9338 45.0285 41.0284 45.1445 41.1383C45.2625 41.2587 45.3567 41.4009 45.4222 41.5572C45.4984 41.7448 45.5348 41.9465 45.529 42.1494C45.5326 42.3969 45.4866 42.6426 45.3937 42.8716C45.3099 43.0913 45.1813 43.2907 45.0164 43.4566C44.8416 43.6289 44.633 43.7618 44.4041 43.8466C44.1375 43.9461 43.8552 43.995 43.5711 43.991C43.3964 43.9893 43.2224 43.9699 43.0514 43.9333C42.8801 43.8962 42.7112 43.8479 42.5459 43.7888C42.3833 43.725 42.2262 43.6477 42.0761 43.5577C41.9405 43.4726 41.814 43.3733 41.6987 43.2616L42.0761 42.6622C42.1068 42.6189 42.1454 42.5821 42.19 42.5538C42.2399 42.5251 42.2963 42.5101 42.3537 42.5105C42.4349 42.5121 42.5139 42.5372 42.5815 42.5827L42.8378 42.7416C42.9428 42.8031 43.0523 42.8562 43.1653 42.9005C43.3078 42.948 43.4568 42.9724 43.6067 42.9727C43.7999 42.9863 43.9916 42.93 44.1478 42.8138C44.2155 42.7545 44.2682 42.6796 44.3016 42.5955C44.3351 42.5113 44.3482 42.4203 44.34 42.3299C44.3457 42.2141 44.3075 42.1004 44.2333 42.0121C44.1539 41.9278 44.0597 41.8593 43.9556 41.8099C43.8315 41.7533 43.7029 41.7074 43.5711 41.6727L43.1226 41.5355C42.9715 41.4859 42.824 41.4256 42.6812 41.3549C42.5339 41.2846 42.401 41.1866 42.2896 41.066C42.1683 40.94 42.0738 40.7901 42.012 40.6255C41.941 40.4165 41.9073 40.1964 41.9123 39.9755C41.9105 39.7669 41.9517 39.5602 42.0333 39.3688C42.1192 39.1706 42.2426 38.9915 42.3964 38.8416C42.5681 38.6813 42.7688 38.5562 42.9874 38.4732C43.2421 38.3764 43.5127 38.3298 43.7847 38.336C43.9468 38.3334 44.1089 38.3455 44.2688 38.3721C44.4236 38.3978 44.576 38.4365 44.7245 38.4877C44.8612 38.5415 44.9944 38.6042 45.1232 38.6754C45.242 38.7431 45.3521 38.8256 45.4507 38.921L45.1374 39.5132Z" fill="#1D1F21"/>
<path d="M49.9999 39.4046H48.4622V43.9185H47.1949V39.4046H45.6642V38.3862H49.9999V39.4046Z" fill="#1D1F21"/>
<path d="M11.8325 48.9303L11.9607 48.6847C12.2319 48.9314 12.5861 49.0632 12.9503 49.053C13.5056 49.053 13.7548 48.8147 13.7548 48.5186C13.7548 47.6808 11.9108 48.1936 11.9108 47.0741C11.9108 46.6263 12.2526 46.2364 13.0144 46.2364C13.3416 46.2345 13.6626 46.3271 13.9399 46.5036L13.8331 46.7636C13.5901 46.6006 13.3057 46.5128 13.0144 46.5108C12.4662 46.5108 12.217 46.7563 12.217 47.0597C12.217 47.8975 14.068 47.3919 14.068 48.5041C14.068 48.9519 13.7121 49.3347 12.9503 49.3347C12.5406 49.3486 12.1411 49.204 11.8325 48.9303Z" fill="#1D1F21"/>
<path d="M17.8628 46.5401H16.8091V46.2656H19.2297V46.5401H18.176V49.3062H17.8628V46.5401Z" fill="#1D1F21"/>
<path d="M23.3091 48.2518V49.3062H22.9959V48.2518L21.7998 46.2656H22.1344L23.1668 47.9701L24.1919 46.2656H24.491L23.3091 48.2518Z" fill="#1D1F21"/>
<path d="M27.5024 46.2656H27.8228V49.0173H29.4745V49.299H27.4811L27.5024 46.2656Z" fill="#1D1F21"/>
<path d="M34.7074 49.0177V49.2994H32.5715V46.2588H34.6219V46.5332H32.8848V47.6166H34.4582V47.891H32.9061V49.0177H34.7074Z" fill="#1D1F21"/>
</svg>
