<svg width="42" height="42" viewBox="0 0 42 42" fill="none" xmlns="http://www.w3.org/2000/svg">
<path d="M33.3719 18.153C33.1743 17.746 32.9072 17.3767 32.5825 17.0616C32.3766 16.89 32.1501 16.6704 31.7245 17.4322C31.4588 17.9286 31.1027 18.3709 30.6744 18.7364C28.9996 20.1915 26.81 20.0337 27.3042 21.0564C27.843 21.8782 28.5824 22.5491 29.4526 23.0057C28.6797 24.2012 27.6493 25.2087 26.4367 25.9546C25.2242 26.7004 23.8602 27.1656 22.4446 27.3162V16.9106H24.3802V14.8171H22.4515V12.6962H28.0524L26.7757 10.2527H22.4515V7.82287C23.2237 7.53503 23.8884 7.01619 24.3551 6.33699C24.8219 5.65778 25.0679 4.85125 25.0597 4.02719C25.0817 3.50647 24.9981 2.98669 24.814 2.49912C24.6298 2.01155 24.349 1.56624 23.9883 1.19003C23.6276 0.813814 23.1946 0.514438 22.7152 0.309929C22.2358 0.105419 21.72 0 21.1988 0C20.6777 0 20.1619 0.105419 19.6825 0.309929C19.2031 0.514438 18.7701 0.813814 18.4094 1.19003C18.0487 1.56624 17.7678 2.01155 17.5837 2.49912C17.3996 2.98669 17.316 3.50647 17.3379 4.02719C17.3298 4.85125 17.5758 5.65778 18.0425 6.33699C18.5093 7.01619 19.174 7.53503 19.9462 7.82287V10.2527H15.622L14.3453 12.6962H19.9462V14.8171H18.0175V16.9106H19.9462V27.3162C18.5324 27.1596 17.1711 26.6911 15.9604 25.9445C14.7496 25.1979 13.7198 24.1918 12.9451 22.9988C13.8144 22.5468 14.5521 21.8776 15.0866 21.0564C15.5739 20.0337 13.405 20.1847 11.7302 18.7501C11.2957 18.3817 10.9348 17.9346 10.6663 17.4322C10.2338 16.6704 10.0142 16.89 9.80829 17.0616C9.49017 17.3687 9.22776 17.7287 9.03269 18.1255C7.9688 20.0405 6.87744 23.6166 8.06489 24.303C8.86088 24.5465 9.71766 24.4978 10.481 24.1657C11.6022 26.0048 13.1776 27.5247 15.0558 28.5793C16.9339 29.6339 19.0517 30.1879 21.2057 30.1879C23.3597 30.1879 25.4775 29.6339 27.3556 28.5793C29.2338 27.5247 30.8092 26.0048 31.9305 24.1657C32.6864 24.4982 33.5369 24.5469 34.3259 24.303C35.5065 23.6372 34.4358 20.0749 33.3719 18.153ZM19.9187 4.02719C19.9282 3.77665 20.0112 3.53446 20.1574 3.33079C20.3036 3.12712 20.5065 2.97099 20.7408 2.8819C20.9752 2.79281 21.2306 2.77467 21.4751 2.82978C21.7197 2.8849 21.9427 3.0108 22.1162 3.19179C22.2896 3.37278 22.406 3.60086 22.4507 3.84755C22.4954 4.09424 22.4665 4.34864 22.3676 4.57901C22.2687 4.80937 22.1041 5.00549 21.8944 5.14294C21.6848 5.28039 21.4393 5.35307 21.1885 5.3519C21.0182 5.34833 20.8502 5.31124 20.6941 5.24273C20.5381 5.17422 20.3971 5.07563 20.2792 4.95261C20.1613 4.82959 20.0687 4.68455 20.0069 4.52576C19.945 4.36697 19.9151 4.19755 19.9187 4.02719Z" fill="#B84ADF"/>
<path d="M3.78883 36.5828C3.75819 36.6448 3.71354 36.6988 3.65842 36.7406C3.60878 36.7772 3.54849 36.7965 3.48682 36.7955C3.41382 36.7942 3.34259 36.7728 3.28091 36.7337L3.03381 36.5896C2.93239 36.5336 2.82684 36.4854 2.71807 36.4455C2.58989 36.4022 2.45522 36.3814 2.31996 36.3837C2.10996 36.3677 1.90167 36.4314 1.73655 36.5621C1.67184 36.6222 1.6211 36.6958 1.58789 36.7777C1.55469 36.8595 1.53983 36.9476 1.54436 37.0358C1.54054 37.1522 1.58241 37.2655 1.66104 37.3515C1.74576 37.4445 1.84852 37.5192 1.96305 37.5712C2.10008 37.6378 2.24242 37.6929 2.3886 37.7359L2.8828 37.9075C3.04953 37.9708 3.21229 38.0441 3.37015 38.1271C3.52715 38.2103 3.67063 38.3167 3.7957 38.4429C3.92665 38.5819 4.02923 38.745 4.09771 38.9233C4.18112 39.1423 4.22075 39.3755 4.21439 39.6097C4.21687 39.8885 4.16801 40.1654 4.07025 40.4265C3.98406 40.6839 3.84094 40.9185 3.65155 41.1129C3.45912 41.3128 3.22468 41.4676 2.96516 41.5659C2.67548 41.674 2.36832 41.7275 2.05915 41.7238C1.86762 41.7231 1.67667 41.7024 1.48944 41.662C1.29688 41.6225 1.10844 41.5651 0.926602 41.4904C0.748689 41.4214 0.578467 41.334 0.418684 41.2296C0.267744 41.1324 0.127422 41.0197 0 40.8933L0.411814 40.2069C0.446601 40.1574 0.490946 40.1154 0.542228 40.0833C0.595591 40.0498 0.657748 40.0332 0.720695 40.0353C0.80942 40.0376 0.895464 40.0662 0.967804 40.1177L1.2492 40.2961C1.36382 40.3701 1.48571 40.4322 1.61299 40.4814C1.76878 40.5394 1.93415 40.5673 2.10033 40.5638C2.30981 40.5753 2.51657 40.512 2.68376 40.3853C2.75869 40.3146 2.81672 40.2279 2.85356 40.1316C2.89039 40.0354 2.90509 39.932 2.89654 39.8293C2.9014 39.7003 2.86001 39.5737 2.77985 39.4725C2.69765 39.3733 2.59451 39.2936 2.47784 39.2391C2.3418 39.1719 2.19919 39.119 2.05228 39.0812C1.89441 39.0332 1.72969 38.9851 1.56495 38.9233C1.39686 38.8689 1.23379 38.8 1.07761 38.7174C0.91606 38.6357 0.77162 38.5239 0.652052 38.388C0.518032 38.2435 0.415224 38.0729 0.350042 37.8869C0.266961 37.6488 0.227447 37.3977 0.233368 37.1456C0.235599 36.6599 0.427749 36.1943 0.768747 35.8483C0.953371 35.665 1.17272 35.5203 1.41395 35.4228C1.69149 35.314 1.98758 35.2604 2.28565 35.2649C2.46525 35.2634 2.64457 35.2795 2.82103 35.313C2.98964 35.3401 3.15517 35.3838 3.31523 35.4434C3.46739 35.5018 3.61436 35.573 3.75452 35.6562C3.88676 35.7348 4.00892 35.8293 4.1183 35.9376L3.78883 36.5828Z" fill="#1D1F21"/>
<path d="M7.22091 36.4106V37.8795H9.1016V38.964H7.22091V40.5289H9.67816V41.6546H5.84814V35.333H9.69875V36.4106H7.22091Z" fill="#1D1F21"/>
<path d="M16.7548 41.6204H15.6771C15.5713 41.6267 15.4666 41.5951 15.382 41.5312C15.3086 41.471 15.2519 41.393 15.2172 41.3047L14.8603 40.1996H12.5884L12.2315 41.3047C12.1988 41.3904 12.1444 41.4661 12.0736 41.5243C11.9888 41.5886 11.8849 41.6225 11.7785 41.6204H10.694L13.014 35.2988H14.4348L16.7548 41.6204ZM14.5446 39.2044L13.9886 37.4747C13.9474 37.3648 13.9063 37.2344 13.8582 37.0834L13.7209 36.603C13.6797 36.7814 13.6386 36.9393 13.5905 37.0903C13.5425 37.2413 13.5013 37.3717 13.4601 37.4815L12.9041 39.2044H14.5446Z" fill="#1D1F21"/>
<path d="M24.5382 36.4657H22.8496V41.6204H21.4769V36.4657H19.7815V35.2988H24.5382V36.4657Z" fill="#1D1F21"/>
<path d="M27.4552 41.6204H26.0824V35.2988H27.4552V41.6204Z" fill="#1D1F21"/>
<path d="M36.1655 35.2988V41.6204H34.9437V37.9826C34.9437 37.9002 34.9437 37.811 34.9437 37.7149C34.9369 37.6143 34.9369 37.5134 34.9437 37.4129L33.3513 40.6595C33.3082 40.7544 33.2392 40.8353 33.1523 40.8929C33.0682 40.9457 32.9701 40.972 32.8709 40.9684H32.6787C32.5794 40.972 32.4813 40.9457 32.3972 40.8929C32.3087 40.8371 32.2393 40.7557 32.1982 40.6595L30.6058 37.406V37.708C30.6058 37.811 30.6058 37.9002 30.6058 37.9826V41.6204H29.384V35.2988H30.5989C30.6397 35.291 30.6817 35.291 30.7225 35.2988C30.76 35.3128 30.7932 35.3365 30.8186 35.3674C30.8523 35.4041 30.88 35.4458 30.9009 35.491L32.4453 38.6964C32.5002 38.8062 32.5483 38.9229 32.6032 39.0396L32.7473 39.4034L32.8914 39.0327C32.9464 38.9092 32.9944 38.7925 33.0562 38.6827L34.5937 35.491C34.6146 35.4458 34.6424 35.4041 34.676 35.3674C34.7014 35.3365 34.7346 35.3128 34.7722 35.2988C34.813 35.291 34.8549 35.291 34.8957 35.2988H36.1106H36.1655Z" fill="#1D1F21"/>
<path d="M39.5428 36.4106V37.8795H41.4235V38.964H39.5428V40.5289H42V41.6546H38.1494V35.333H42V36.4106H39.5428Z" fill="#1D1F21"/>
</svg>
